<?xml version="1.0" encoding="utf-8"?>
<!-- Generator: Adobe Illustrator 27.5.0, SVG Export Plug-In . SVG Version: 6.00 Build 0)  -->
<svg version="1.1" id="Layer_1" xmlns="http://www.w3.org/2000/svg" xmlns:xlink="http://www.w3.org/1999/xlink" x="0px" y="0px"
	 viewBox="0 0 208 22.3" style="enable-background:new 0 0 208 22.3;" xml:space="preserve">
<style type="text/css">
	.st0{fill:#2B2B2B;}
	.st1{fill:#F0B93A;}
	.st2{fill:#353535;}
</style>
<g>
	<g>
		<g>
			<g>
				<path class="st0" d="M20.4,3.7c0,0.3-0.3,0.6-0.6,0.6H3.1V3.1h16.8C20.2,3.1,20.4,3.3,20.4,3.7z"/>
				<path class="st0" d="M19.9,1.6H1.6v4.2h18.3C21,5.8,22,4.8,22,3.7C22,2.5,21,1.6,19.9,1.6z M19.9,5H2.3V2.3h17.6
					c0.7,0,1.3,0.6,1.3,1.3C21.2,4.4,20.6,5,19.9,5z"/>
				<path class="st0" d="M19.9,0H0v7.3h19.9c2,0,3.7-1.6,3.7-3.7S21.9,0,19.9,0z M21.9,5.7c-0.5,0.5-1.2,0.8-2,0.8H0.8V0.8h19.1
					c1.6,0,2.9,1.3,2.9,2.9C22.8,4.4,22.4,5.2,21.9,5.7z"/>
				<path class="st0" d="M20.4,3.7c0,0.3-0.3,0.6-0.6,0.6H3.1V3.1h16.8C20.2,3.1,20.4,3.3,20.4,3.7z"/>
				<path class="st0" d="M19.9,1.6H1.6v4.2h18.3C21,5.8,22,4.8,22,3.7C22,2.5,21,1.6,19.9,1.6z M19.9,5H2.3V2.3h17.6
					c0.7,0,1.3,0.6,1.3,1.3C21.2,4.4,20.6,5,19.9,5z"/>
				<path class="st0" d="M20.4,3.7c0,0.3-0.3,0.6-0.6,0.6H3.1V3.1h16.8C20.2,3.1,20.4,3.3,20.4,3.7z"/>
				<path class="st0" d="M19.9,1.6H1.6v4.2h18.3C21,5.8,22,4.8,22,3.7C22,2.5,21,1.6,19.9,1.6z M19.9,5H2.3V2.3h17.6
					c0.7,0,1.3,0.6,1.3,1.3C21.2,4.4,20.6,5,19.9,5z"/>
				<path class="st0" d="M20.4,3.7c0,0.3-0.3,0.6-0.6,0.6H3.1V3.1h16.8C20.2,3.1,20.4,3.3,20.4,3.7z"/>
				<path class="st0" d="M20.4,3.7c0,0.3-0.3,0.6-0.6,0.6H3.1V3.1h16.8C20.2,3.1,20.4,3.3,20.4,3.7z"/>
			</g>
			<g>
				<path class="st0" d="M3.1,11.1c0-0.3,0.3-0.6,0.6-0.6h16.8v1.1H3.7C3.3,11.7,3.1,11.4,3.1,11.1z"/>
				<path class="st0" d="M3.7,13.2H22V9H3.7c-1.2,0-2.1,0.9-2.1,2.1C1.6,12.3,2.5,13.2,3.7,13.2z M3.7,9.8h17.6v2.7H3.7
					c-0.7,0-1.3-0.6-1.3-1.3C2.3,10.4,2.9,9.8,3.7,9.8z"/>
				<path class="st0" d="M3.7,14.8h19.9V7.5H3.7c-2,0-3.7,1.6-3.7,3.7S1.6,14.8,3.7,14.8z M1.6,9.1c0.5-0.5,1.2-0.8,2-0.8h19.1V14
					H3.7c-1.6,0-2.9-1.3-2.9-2.9C0.8,10.3,1.1,9.6,1.6,9.1z"/>
				<path class="st0" d="M3.1,11.1c0-0.3,0.3-0.6,0.6-0.6h16.8v1.1H3.7C3.3,11.7,3.1,11.4,3.1,11.1z"/>
				<path class="st0" d="M3.7,13.2H22V9H3.7c-1.2,0-2.1,0.9-2.1,2.1C1.6,12.3,2.5,13.2,3.7,13.2z M3.7,9.8h17.6v2.7H3.7
					c-0.7,0-1.3-0.6-1.3-1.3C2.3,10.4,2.9,9.8,3.7,9.8z"/>
				<path class="st0" d="M3.1,11.1c0-0.3,0.3-0.6,0.6-0.6h16.8v1.1H3.7C3.3,11.7,3.1,11.4,3.1,11.1z"/>
				<path class="st0" d="M3.7,13.2H22V9H3.7c-1.2,0-2.1,0.9-2.1,2.1C1.6,12.3,2.5,13.2,3.7,13.2z M3.7,9.8h17.6v2.7H3.7
					c-0.7,0-1.3-0.6-1.3-1.3C2.3,10.4,2.9,9.8,3.7,9.8z"/>
				<path class="st0" d="M3.1,11.1c0-0.3,0.3-0.6,0.6-0.6h16.8v1.1H3.7C3.3,11.7,3.1,11.4,3.1,11.1z"/>
				<path class="st0" d="M3.1,11.1c0-0.3,0.3-0.6,0.6-0.6h16.8v1.1H3.7C3.3,11.7,3.1,11.4,3.1,11.1z"/>
			</g>
			<g>
				<path class="st0" d="M20.4,18.6c0,0.3-0.3,0.6-0.6,0.6H3.1V18h16.8C20.2,18,20.4,18.3,20.4,18.6z"/>
				<path class="st0" d="M19.9,16.5H1.6v4.2h18.3c1.2,0,2.1-0.9,2.1-2.1C22,17.4,21,16.5,19.9,16.5z M19.9,19.9H2.3v-2.7h17.6
					c0.7,0,1.3,0.6,1.3,1.3C21.2,19.3,20.6,19.9,19.9,19.9z"/>
				<path class="st0" d="M19.9,14.9H0v7.3h19.9c2,0,3.7-1.6,3.7-3.7S21.9,14.9,19.9,14.9z M21.9,20.6c-0.5,0.5-1.2,0.8-2,0.8H0.8
					v-5.8h19.1c1.6,0,2.9,1.3,2.9,2.9C22.8,19.3,22.4,20.1,21.9,20.6z"/>
				<path class="st0" d="M20.4,18.6c0,0.3-0.3,0.6-0.6,0.6H3.1V18h16.8C20.2,18,20.4,18.3,20.4,18.6z"/>
				<path class="st0" d="M19.9,16.5H1.6v4.2h18.3c1.2,0,2.1-0.9,2.1-2.1C22,17.4,21,16.5,19.9,16.5z M19.9,19.9H2.3v-2.7h17.6
					c0.7,0,1.3,0.6,1.3,1.3C21.2,19.3,20.6,19.9,19.9,19.9z"/>
				<path class="st0" d="M20.4,18.6c0,0.3-0.3,0.6-0.6,0.6H3.1V18h16.8C20.2,18,20.4,18.3,20.4,18.6z"/>
				<path class="st0" d="M19.9,16.5H1.6v4.2h18.3c1.2,0,2.1-0.9,2.1-2.1C22,17.4,21,16.5,19.9,16.5z M19.9,19.9H2.3v-2.7h17.6
					c0.7,0,1.3,0.6,1.3,1.3C21.2,19.3,20.6,19.9,19.9,19.9z"/>
				<path class="st0" d="M20.4,18.6c0,0.3-0.3,0.6-0.6,0.6H3.1V18h16.8C20.2,18,20.4,18.3,20.4,18.6z"/>
				<path class="st0" d="M20.4,18.6c0,0.3-0.3,0.6-0.6,0.6H3.1V18h16.8C20.2,18,20.4,18.3,20.4,18.6z"/>
			</g>
		</g>
		<polygon class="st1" points="19.9,3.1 19.9,12.4 19.9,12.4 18.7,11.5 17.2,10.3 15.6,11.5 14.4,12.4 14.4,12.4 14.4,3.1 		"/>
	</g>
	<g>
		<path class="st2" d="M28.6,0.5h9.2c4.7,0,7.4,2.4,7.4,6.3c0,1.5-1,3.2-2.5,3.8c2,0.7,3.5,2.6,3.5,4.7c0,3.9-2.8,6.4-7.6,6.4h-10
			V0.5z M37.7,9.1c1.8,0,2.8-0.8,2.8-2.3c0-1.5-1-2.3-2.8-2.3h-4.3v4.6H37.7z M38.4,17.7c1.9,0,3-0.8,3-2.4s-1.2-2.4-3-2.4h-5.1v4.8
			H38.4z"/>
		<path class="st2" d="M46.8,11.2C46.8,4.7,51.7,0,58.2,0s11.5,4.7,11.5,11.2c0,6.4-4.9,11.2-11.5,11.2S46.8,17.6,46.8,11.2z
			 M65,11.2c0-4-2.9-6.9-6.7-6.9s-6.7,2.9-6.7,6.9c0,4,2.9,6.9,6.7,6.9S65,15.1,65,11.2z"/>
		<path class="st2" d="M70.3,11.2C70.3,4.7,75.2,0,81.7,0s11.5,4.7,11.5,11.2c0,6.4-4.9,11.2-11.5,11.2S70.3,17.6,70.3,11.2z
			 M88.5,11.2c0-4-2.9-6.9-6.7-6.9c-3.9,0-6.7,2.9-6.7,6.9c0,4,2.9,6.9,6.7,6.9C85.6,18,88.5,15.1,88.5,11.2z"/>
		<path class="st2" d="M102.4,13.7L99.5,17v4.8h-4.7V0.5h4.7v10l8.5-10h5.8l-8.3,9.6l8.8,11.6h-5.9L102.4,13.7z"/>
		<path class="st2" d="M130.5,7h-4.9c-0.3-1.8-1.7-3-3.9-3c-2.2,0-3.4,0.9-3.4,2.2c0,1.6,1.6,2.1,5.8,3c4.9,1,6.6,3.4,6.6,6.6
			c0,4.1-3.8,6.5-8.6,6.5c-5.2,0-9.1-2.8-9.3-7.4h4.9c0.3,2,2,3.4,4.7,3.4c1.9,0,3.4-1,3.4-2.3c0-1.7-1.4-2.4-5.2-3.1
			c-4.6-0.9-7.1-2.8-7.1-6.7c0-3.8,3.8-6.1,8.6-6.1C126.7,0,130.3,2.9,130.5,7z"/>
		<path class="st2" d="M149.2,4.7h-6.9v17h-4.7v-17h-6.9V0.5h18.6V4.7z"/>
		<path class="st2" d="M148.5,11.2C148.5,4.7,153.4,0,160,0s11.5,4.7,11.5,11.2c0,6.4-4.9,11.2-11.5,11.2S148.5,17.6,148.5,11.2z
			 M166.7,11.2c0-4-2.9-6.9-6.7-6.9s-6.7,2.9-6.7,6.9c0,4,2.9,6.9,6.7,6.9S166.7,15.1,166.7,11.2z"/>
		<path class="st2" d="M185.6,21.8l-4.1-6.7h-3.8v6.7H173V0.5h8.5c5.4,0,8.5,2.9,8.5,7.3c0,2.9-1.4,5.2-3.9,6.3l4.9,7.6H185.6z
			 M177.7,10.9h3.6c2.5,0,4-1.1,4-3.1c0-2-1.5-3.1-4-3.1h-3.6V10.9z"/>
		<path class="st2" d="M192,0.5h15.8v4.1h-11V9h10.1v4.1h-10.1v4.6H208v4.1h-16V0.5z"/>
	</g>
	<circle class="st2" cx="54.2" cy="12.6" r="2.7"/>
	<circle class="st2" cx="77.5" cy="12.6" r="2.7"/>
	<rect x="67.4" y="7.7" class="st2" width="5" height="3.8"/>
</g>
</svg>
